<?xml version="1.0" standalone="no"?>
<!DOCTYPE svg PUBLIC "-//W3C//DTD SVG 20010904//EN"
 "http://www.w3.org/TR/2001/REC-SVG-20010904/DTD/svg10.dtd">
<svg version="1.0" xmlns="http://www.w3.org/2000/svg"
 width="482.000000pt" height="148.000000pt" viewBox="0 0 482.000000 148.000000"
 preserveAspectRatio="xMidYMid meet">

<g transform="translate(0.000000,148.000000) scale(0.100000,-0.100000)"
fill="#000000" stroke="none">
<path d="M1023 1150 c-13 -27 -23 -54 -23 -60 0 -13 -6 -13 -70 10 -55 19
-141 25 -199 14 -42 -9 -40 -24 3 -17 40 6 167 -21 204 -44 15 -9 28 -18 30
-18 1 -1 -18 -45 -43 -98 -25 -53 -45 -101 -45 -107 0 -5 -4 -10 -10 -10 -5 0
-10 -5 -10 -12 0 -6 -9 -30 -19 -52 -10 -23 -27 -58 -36 -78 -10 -21 -21 -38
-25 -38 -11 0 -58 99 -106 222 l-19 48 -93 0 c-87 0 -92 -1 -83 -19 12 -21
155 -241 168 -256 4 -5 37 -54 72 -107 36 -54 68 -98 71 -98 4 0 20 19 36 43
16 23 31 44 34 47 3 3 23 32 46 65 84 124 166 240 180 254 21 23 36 -31 32
-119 -5 -131 -83 -251 -201 -312 -106 -54 -266 -38 -377 39 -23 16 -23 15 4
-14 15 -17 56 -46 90 -65 59 -32 65 -33 176 -33 104 0 121 3 172 27 76 35 147
108 189 193 32 65 34 76 34 165 -1 80 -5 105 -28 159 -15 36 -24 67 -20 70 5
3 26 33 49 66 22 33 56 83 75 110 19 28 39 56 43 63 6 9 -24 12 -136 12 l-143
0 -22 -50z"/>
<path d="M2193 1047 c-49 -12 -52 -18 -20 -32 22 -10 22 -14 25 -205 1 -107 0
-204 -2 -216 -3 -11 -16 -26 -28 -32 -19 -9 -8 -11 57 -11 76 0 79 0 53 15
l-28 15 0 239 c0 132 -3 239 -7 239 -5 -1 -27 -7 -50 -12z"/>
<path d="M2384 1005 c-4 -9 0 -23 9 -32 21 -21 49 -9 45 19 -4 28 -45 38 -54
13z"/>
<path d="M1474 856 c-71 -31 -105 -137 -69 -217 26 -57 90 -93 152 -86 58 6
92 31 122 90 19 38 22 56 17 92 -16 103 -125 163 -222 121z m110 -27 c39 -31
56 -71 56 -135 0 -50 -3 -59 -34 -90 -38 -38 -54 -41 -96 -19 -77 40 -91 191
-23 245 33 26 63 25 97 -1z"/>
<path d="M1924 860 c-12 -5 -25 -13 -29 -19 -9 -16 -35 -13 -35 4 0 16 -49 20
-84 6 -17 -6 -16 -9 8 -24 27 -18 27 -18 24 -135 -3 -113 -4 -117 -28 -129
-22 -11 -16 -13 55 -12 77 0 79 0 53 15 -28 15 -28 15 -28 123 0 90 3 110 18
123 47 42 106 27 123 -31 6 -20 9 -74 7 -121 -3 -79 -5 -85 -28 -97 -22 -11
-16 -13 55 -12 77 0 79 0 53 15 -27 14 -28 18 -28 97 -1 110 -13 167 -40 189
-24 19 -61 22 -96 8z"/>
<path d="M2400 863 c-52 -9 -57 -13 -30 -33 22 -16 25 -28 28 -94 6 -108 -4
-161 -31 -174 -18 -9 -6 -11 58 -11 76 0 79 1 53 14 -35 19 -41 54 -36 195 2
71 0 110 -7 109 -5 -1 -21 -4 -35 -6z"/>
<path d="M2635 864 c-5 -1 -28 -5 -49 -9 l-39 -7 27 -21 c27 -22 27 -22 24
-137 -3 -111 -4 -115 -28 -127 -22 -11 -16 -13 55 -12 77 0 79 0 53 15 -28 15
-28 15 -28 123 0 90 3 110 18 123 47 42 106 27 123 -31 6 -20 9 -74 7 -121 -3
-79 -5 -85 -28 -97 -22 -11 -16 -13 55 -12 77 0 79 0 53 15 -27 14 -28 17 -28
102 -1 158 -27 209 -103 199 -21 -3 -46 -12 -56 -21 -23 -21 -39 -20 -43 2 -2
11 -7 18 -13 16z"/>
<path d="M3030 858 c-32 -17 -68 -71 -76 -114 -10 -56 4 -103 46 -148 36 -38
42 -41 92 -41 37 0 61 6 80 20 31 23 37 41 9 25 -11 -5 -40 -10 -64 -10 -54 0
-91 26 -107 76 -20 60 -13 64 101 64 l102 0 -6 42 c-8 58 -42 90 -104 95 -28
2 -58 -2 -73 -9z m104 -34 c14 -15 26 -37 26 -50 0 -23 -3 -24 -73 -24 -41 0
-76 3 -80 6 -10 10 14 64 36 79 32 22 61 18 91 -11z"/>
<path d="M3325 858 c-29 -17 -44 -40 -45 -68 0 -37 22 -63 75 -90 55 -28 80
-60 70 -90 -16 -50 -79 -49 -126 3 l-29 32 6 -35 c9 -49 17 -54 83 -55 49 0
64 4 84 23 33 31 42 68 23 97 -8 13 -42 40 -76 60 -50 30 -60 41 -60 64 0 58
55 69 101 20 l29 -31 0 25 c0 14 -7 33 -16 41 -18 19 -89 21 -119 4z"/>
<path d="M3550 860 l-34 -5 27 -18 27 -17 0 -205 c0 -113 -4 -205 -8 -205 -5
0 -17 -7 -28 -15 -17 -13 -12 -14 59 -15 79 0 95 8 52 28 -23 11 -25 17 -25
82 l0 70 43 -6 c83 -12 153 42 178 136 11 40 10 51 -9 92 -30 69 -65 87 -166
85 -45 -1 -97 -4 -116 -7z m184 -31 c37 -29 56 -70 56 -121 0 -106 -93 -174
-154 -112 -24 23 -23 210 1 236 22 24 64 23 97 -3z"/>
<path d="M3995 861 c-28 -12 -52 -41 -70 -84 -20 -49 -19 -93 5 -141 29 -58
64 -81 125 -81 34 0 59 6 77 20 31 23 37 41 9 25 -11 -5 -40 -10 -64 -10 -54
0 -91 26 -107 76 -20 60 -13 64 101 64 l102 0 -6 42 c-8 58 -42 90 -104 94
-26 2 -57 0 -68 -5z m99 -42 c14 -17 26 -39 26 -50 0 -17 -8 -19 -74 -19 -41
0 -78 4 -81 10 -3 5 1 23 10 39 30 59 80 67 119 20z"/>
<path d="M4201 855 c27 -14 32 -24 100 -193 31 -79 40 -111 35 -137 -8 -42
-40 -83 -69 -87 -26 -4 -36 -42 -13 -51 36 -14 65 35 141 243 52 141 82 210
98 222 22 17 21 18 -43 17 -54 0 -61 -2 -45 -11 11 -6 23 -16 26 -21 10 -14
-47 -187 -61 -187 -4 0 -24 41 -46 91 -35 84 -36 92 -21 104 29 21 20 25 -55
25 -68 -1 -71 -2 -47 -15z"/>
</g>
</svg>
