<?xml version="1.0" encoding="UTF-8"?>
<svg version="1.1" viewBox="0 0 1600 600" width="1280" height="1280" xmlns="http://www.w3.org/2000/svg">
<path transform="translate(0)" d="m0 0h1600v600h-1600v-600z" fill="#FEFEFE"/>
<path transform="translate(426,228)" d="m0 0v2l4 2v2c0.59 0.23 1.18 0.47 1.78 0.71 2.76 1.6 3.94 3.34 5.72 5.98 0.57 0.83 1.13 1.66 1.72 2.51 3.53 5.55 6.53 11.1 8.97 17.2 0.26 0.65 0.52 1.3 0.79 1.98 1.93 5.01 2.77 9.31 3.02 14.6 0.19 0.95 0.37 1.9 0.56 2.88 1.46 10.4-0.28 19.6-3.75 29.5-0.99 3.2-1.19 5.26-0.81 8.62 1.41 2.64 3.21 4.91 5.06 7.25 1.01 1.32 2.02 2.65 3.03 3.97 0.74 0.96 0.74 0.96 1.5 1.94 1.92 2.5 3.77 5.03 5.6 7.59 0.55 0.76 1.1 1.52 1.67 2.3 1.14 1.95 1.14 1.95 1.14 4.95h2c1.73 2.34 1.73 2.34 3.62 5.38 0.64 0.99 1.27 1.99 1.92 3.02 1.46 2.6 1.46 2.6 1.46 4.6h2c1.6 2.22 3.09 4.44 4.56 6.75 3.23 4.97 6.53 9.8 10.1 14.5 11.3 14.9 11.3 14.9 11.3 18.8 0.99 0.33 1.98 0.66 3 1 1.32 1.63 1.32 1.63 2.56 3.56 1.19 1.91 1.19 1.91 2.44 3.44h2c-0.04-11.1-0.1-22.3-0.18-33.4-0.04-5.18-0.08-10.4-0.09-15.5-0.02-4.99-0.05-9.98-0.1-15-0.01-1.91-0.02-3.81-0.02-5.72 0-2.67-0.03-5.33-0.06-8 0-0.79 0.01-1.58 0.01-2.39-0.07-3.55-0.26-5.57-2.44-8.43-2.38-1.72-4.27-2.37-7.12-3.03-4.02-1.07-6.41-2.08-9-5.5 3.18-1.87 5.45-2.23 9.12-2.16 1.51 0.02 1.51 0.02 3.06 0.04 1.07 0.02 2.15 0.04 3.26 0.06 11.6 0.12 23-0.26 34.6-0.94l1 5c-3.33 2.87-6.55 3.97-10.8 5.19-1.17 0.34-2.34 0.69-3.55 1.04-0.89 0.25-1.78 0.51-2.7 0.77-0.14 1.18-0.29 2.35-0.44 3.56-0.3 2.48-0.64 4.93-1.07 7.39-0.73 5.09-0.62 10.2-0.6 15.3v3.37c0 3.67 0 7.33 0.01 11 0 2.55 0.01 5.09 0.01 7.64 0 6.01 0.01 12 0.02 18 0.01 6.84 0.01 13.7 0.02 20.5 0.01 14.1 0.03 28.1 0.05 42.2-6.69-0.86-9.52-2.06-14-7-2.55-3.31-4.84-6.75-7.12-10.2-1.32-1.97-2.64-3.95-3.96-5.92-0.65-0.98-1.31-1.96-1.98-2.97-2.85-4.21-5.82-8.32-8.82-12.4-4.4-6.05-8.72-12.2-13-18.3-2.7-3.9-5.46-7.76-8.23-11.6-2.76-3.86-5.51-7.74-8.25-11.6-2.55-3.63-5.11-7.26-7.68-10.9-0.57-0.8-1.14-1.6-1.72-2.43-1.73-2.44-3.47-4.88-5.22-7.32-0.79-1.13-0.79-1.13-1.61-2.27-2.89-4.03-5.83-7.59-9.45-11-0.74 6.46-1.15 12.8-1.16 19.3-0.01 0.88-0.01 1.75-0.02 2.65-0.01 2.85-0.02 5.7-0.02 8.54-0.01 0.98-0.01 1.96-0.01 2.97-0.02 5.17-0.03 10.3-0.03 15.5-0.01 5.33-0.03 10.7-0.06 16-0.02 4.11-0.02 8.21-0.02 12.3-0.01 1.97-0.01 3.94-0.03 5.91-0.01 2.74-0.01 5.48-0.01 8.22-0.01 0.81-0.01 1.63-0.02 2.46 0.02 3.28 0.15 5.67 1.73 8.58 2.35 2.17 4.53 2.44 7.65 3.02 5.52 1.03 5.52 1.03 7.94 3.41 0.35 0.69 0.7 1.38 1.06 2.09l-1 3c-6.8 0.08-13.6 0.13-20.4 0.16-2.31 0.02-4.63 0.04-6.94 0.07-3.32 0.03-6.64 0.05-9.96 0.06-1.56 0.03-1.56 0.03-3.16 0.05h-2.91c-1.27 0.01-1.27 0.01-2.57 0.02-0.68-0.12-1.36-0.24-2.06-0.36l-2-3c1.69-3.38 5.6-3.86 9-5.06 4.86-1.39 4.86-1.39 9-3.94 1.01-5.71 1.14-11.5 1.11-17.3v-2.34c0-2.52 0-5.03-0.01-7.55 0-1.76-0.01-3.52-0.01-5.28 0-4.6-0.01-9.2-0.02-13.8-0.01-4.71-0.02-9.41-0.02-14.1-0.01-9.21-0.03-18.4-0.05-27.6-3.73 0.69-6.67 1.68-10.1 3.38-14.4 6.65-26.9 6.82-41.9 2.62-1.52-0.42-1.52-0.42-3.07-0.84-17.5-5.32-30-16.2-38.9-32.2-0.58-1-0.58-1-1.17-2.01-4.43-8.12-7.42-17.7-7.83-27-0.06-1-0.13-2-0.19-3.04-0.7-19.9 7.28-38.9 20.2-54 25.1-26.8 59.6-26.6 89-7z" fill="#F8A410"/>
<path transform="translate(380 223)" d="m0 0c1.13 0.02 1.13 0.02 2.28 0.03 14 0.4 23.5 7.74 33 17.6 9.85 11.6 14.4 26 14.5 41v2.05 4.24c-0.01 2.17 0 4.34 0 6.51v4.14c0 1.25 0 2.5-0.01 3.79-0.13 2.98-0.13 2.98-1.13 4.98-1.12 0.06-2.24 0.12-3.4 0.18-7.56 0.42-15.1 0.86-22.6 1.82v3c1.22 0.45 2.44 0.9 3.69 1.37 1.1 0.42 1.1 0.42 2.22 0.84 1.6 0.6 3.22 1.17 4.85 1.72 2.88 1.36 4.39 2.45 6.24 5.07 0.86 5.1 0.48 7.87-2.5 12.1-6.88 8.21-15 12.2-25.5 13.9-10.5-0.06-19.5-1.65-28-8-0.7-0.51-1.41-1.01-2.14-1.52-4.28-3.08-4.28-3.08-5.86-4.48v-2h-2c-0.32-1.32-0.66-2.64-1-4h-2c-5.83-10.9-11.1-21.9-11.8-34.4-0.13-2.6-0.13-2.6-0.58-5.32-2.47-18.8 4.03-37.2 14.9-52.4 3.29-3.92 6.93-6.57 11.5-8.81 1.07-0.54 2.13-1.07 3.23-1.61 4.06-1.71 7.79-1.86 12.2-1.77z" fill="#FEFEFE"/>
<path transform="translate(591,359)" d="m0 0h23v160h-159c-0.62-5.54-1.14-10.5-1.12-16-0.01-1.11-0.01-2.23-0.01-3.38 0.13-2.62 0.13-2.62 1.13-3.62 1.76-0.1 3.52-0.12 5.28-0.12h3.47c1.27 0 2.54 0 3.85 0.01h4.08c3.66 0 7.32 0 11 0.01 3.43 0 6.86 0 10.3 0.01 10 0 20.1 0.01 30.1 0.03 33.6 0.03 33.6 0.03 67.9 0.06v-137z" fill="#F5FCFC"/>
<path transform="translate(254 149)" d="m0 0c1.31-0 2.62-0.01 3.96-0.01 1.46 0.01 2.91 0.02 4.36 0.03h4.59c4.15 0 8.3 0.02 12.4 0.04 4.33 0.02 8.67 0.02 13 0.02 8.21 0.01 16.4 0.03 24.6 0.06 9.34 0.04 18.7 0.05 28 0.07 19.2 0.03 38.5 0.08 57.7 0.15 2.26 7.68 2.26 7.68 2.2 11.2-0.01 1.05-0.01 1.05-0.02 2.12-0.02 1.06-0.02 1.06-0.05 2.14-0.01 0.73-0.02 1.46-0.03 2.22-0.02 1.78-0.06 3.56-0.1 5.34-2.59 1.3-4.46 1.12-7.36 1.12-1.14 0-2.28 0-3.45 0.01-1.26-0.01-2.51-0.01-3.8-0.02h-4c-3.61 0.01-7.23 0-10.8-0.01-3.78 0-7.56 0-11.3-0.01-7.16 0-14.3-0.01-21.5-0.02-8.14-0.01-16.3-0.01-24.4-0.02-16.8-0.01-33.5-0.03-50.3-0.05 0.01 0.65 0.01 1.29 0.01 1.96 0.02 15.8 0.04 31.5 0.05 47.2 0 7.62 0.01 15.2 0.02 22.8 0.01 6.64 0.02 13.3 0.02 19.9 0 3.51 0 7.03 0.01 10.5 0.01 3.93 0.01 7.86 0.01 11.8 0 1.16 0.01 2.31 0.01 3.5-0.01 6.15-0.32 12.1-1.13 18.2-3.1 0.03-6.2 0.05-9.31 0.06-0.88 0.01-1.76 0.02-2.67 0.03-1.27 0-1.27 0-2.57 0.01-0.78 0-1.56 0.01-2.36 0.01-2.09-0.11-2.09-0.11-5.09-1.11-0.07-20.3-0.12-40.6-0.15-60.9-0.02-9.42-0.04-18.8-0.07-28.3-0.03-8.21-0.05-16.4-0.06-24.6 0-4.35-0.01-8.69-0.03-13-0.02-4.09-0.03-8.18-0.02-12.3-0.01-1.5-0.01-3.01-0.02-4.51-0.02-2.05-0.01-4.1-0.01-6.15v-3.47c0.36-2.81 0.36-2.81 1.5-4.68 2.74-1.66 4.92-1.5 8.11-1.49z" fill="#F9A410"/>
<path transform="translate(464 149)" d="m0 0c1.1-0 1.1-0 2.23-0.01 2.43 0 4.87 0.02 7.3 0.04h5.1c3.56 0.01 7.13 0.02 10.7 0.05 4.55 0.02 9.1 0.03 13.6 0.04 4.35 0 8.71 0.02 13.1 0.03 1.24 0.01 1.24 0.01 2.49 0.01 7.6 0.02 15.1 0.08 22.6 0.97 6.12 0.53 12.3 0.35 18.4 0.32h4.53c3.94 0 7.89-0.01 11.8-0.02 4.03-0.02 8.07-0.02 12.1-0.02 7.89-0.02 15.8-0.03 23.7-0.05 1.73 3.76 2.25 6.69 2.25 10.8 0 1.16 0.01 2.33 0.01 3.53-0.01 1.27-0.01 2.54-0.02 3.85 0 1.36 0.01 2.72 0.01 4.08 0 3.68 0 7.37-0.01 11.1-0.01 3.87-0.01 7.73-0.01 11.6 0 6.51-0.01 13-0.02 19.5-0.02 7.5-0.03 15-0.02 22.5 0 8-0.01 16-0.02 24v6.88c0 3.62-0.01 7.25-0.02 10.9v5.83c-0.03 7.86-0.44 15.6-1.15 23.4-4.57 2.02-8.27 2.13-13.2 1.75-0.72-0.04-1.45-0.08-2.19-0.12-5.36-0.37-5.36-0.37-7.62-2.63-0.19-3.04-0.26-5.98-0.24-9.01-0.01-0.94-0.01-1.87-0.01-2.84 0-3.11 0.01-6.23 0.02-9.35v-6.56c0-4.62 0.01-9.23 0.02-13.8 0.02-5.82 0.02-11.6 0.02-17.5 0.01-44.3 0.01-44.3 1.02-64.4 0.05-1.12 0.1-2.24 0.15-3.4 0.05-0.95 0.11-1.91 0.16-2.89 0.1-2.45 0.1-2.45-2.14-4.24-2.37-0.27-4.63-0.4-7.02-0.45-0.76-0.02-1.52-0.05-2.31-0.07-2.64-0.07-5.28-0.12-7.92-0.17-0.92-0.02-1.85-0.04-2.8-0.06-15.6-0.35-31.3-0.22-46.9-0.02-1.44 0.02-1.44 0.02-2.92 0.04-9.84 0.13-19.7 0.27-29.5 0.44-3.76 0.07-7.51 0.13-11.3 0.18-1.78 0.03-3.55 0.07-5.32 0.1-2.45 0.05-4.9 0.09-7.35 0.13-0.71 0.01-1.43 0.03-2.18 0.05-3.66 0.04-6.33-0.14-9.45-2.17-0.09-3.11-0.14-6.21-0.19-9.32-0.02-0.88-0.05-1.76-0.07-2.67-0.01-0.84-0.02-1.69-0.03-2.56-0.02-0.78-0.03-1.56-0.05-2.37 0.95-5.83 5.66-5.51 10.6-5.44z" fill="#C5BB28"/>
<path transform="translate(245,359)" d="m0 0c3.46-0.09 6.92-0.14 10.4-0.19 0.98-0.02 1.96-0.05 2.98-0.07 1.41-0.02 1.41-0.02 2.85-0.03 0.87-0.02 1.74-0.03 2.64-0.05 0.71 0.11 1.42 0.22 2.15 0.34 2.19 3.28 2.25 4.23 2.25 8.04 0.01 1.04 0.02 2.08 0.02 3.16 0 1.14-0.01 2.28-0.01 3.46 0 1.2 0.01 2.41 0.01 3.65 0.01 3.3 0 6.6 0 9.9-0.01 3.46 0 6.91 0 10.4 0.01 5.8 0 11.6-0.01 17.4-0.01 6.7-0.01 13.4 0 20.1 0.01 5.76 0.01 11.5 0.01 17.3v10.3c0.01 3.84 0 7.68-0.01 11.5 0 1.14 0.01 2.28 0.01 3.46 0 1.04-0.01 2.09-0.02 3.16v2.75c-0.27 2.57-0.95 4.21-2.25 6.42h2v6c1.09-0.01 2.18-0.03 3.3-0.04 10.4-0.12 20.8-0.24 31.2-0.35 5.34-0.06 10.7-0.12 16-0.18 40.7-0.47 40.7-0.47 58.9-0.52 1.78-0.01 1.78-0.01 3.61-0.02 1.05 0 2.11 0 3.2-0.01h2.74c2.02 0.12 2.02 0.12 3.02 1.12 2.33 0.21 4.66 0.37 7 0.5 6.89 0.39 6.89 0.39 8 1.5 0.09 1.56 0.11 3.13 0.1 4.69-0.01 0.95-0.01 1.89-0.01 2.86-0.01 1-0.02 1.99-0.03 3.01 0 1-0.01 2-0.01 3.02-0.01 2.48-0.03 4.95-0.05 7.42-2.31 0.03-4.62 0.05-6.94 0.06-1.29 0.01-2.57 0.03-3.9 0.04-3.16-0.1-3.16-0.1-4.16-1.1v1h-8v-2h-3v2h-11v-2h-7v2h-13v-2c-0.61 0.14-1.23 0.28-1.86 0.43-5.91 1.28-11.4 1.86-17.5 1.83-0.87 0-1.75 0.01-2.65 0.01-2.85 0.01-5.71 0-8.56 0h-5.99c-4.16 0-8.33 0-12.5-0.01-5.34-0.01-10.7 0-16 0.01-4.11 0.01-8.22 0-12.3 0h-5.91c-2.75 0.01-5.49 0-8.24-0.01-0.81 0-1.63 0.01-2.47 0.01-3.85-0.03-5.69-0.08-8.97-2.27-0.35-2.89-0.35-2.89-0.32-6.63v-2.07c0.01-2.26 0.03-4.52 0.06-6.78 0.01-1.57 0.02-3.14 0.02-4.72 0.02-4.15 0.05-8.29 0.09-12.4 0.06-6.62 0.1-13.2 0.13-19.9 0.01-2.31 0.03-4.62 0.06-6.92l0.03-4.29c0.01-1.24 0.02-2.48 0.03-3.76-0.03-3.52-0.03-3.52-0.6-6.97-0.55-3.92-0.59-7.74-0.52-11.7 0.01-0.78 0.02-1.56 0.03-2.37 0.03-2.56 0.07-5.11 0.11-7.67 0.03-1.79 0.05-3.57 0.07-5.35 0.07-4.68 0.13-9.36 0.2-14 0.08-4.78 0.14-9.55 0.21-14.3 0.12-9.37 0.26-18.7 0.4-28.1z" fill="#F4FBF9"/>
<path transform="translate(732 284)" d="m0 0c11.5 12.1 15.2 26 15.1 42.5-0.01 1.14-0.02 2.27-0.02 3.44-0.28 12.7-2.51 24-11.2 33.8-6.38 5.86-13.8 9.98-22.6 10.1-10.5-0.64-18.3-4.62-25.6-12-0.62-0.57-1.24-1.14-1.88-1.73-7.71-7.76-10.1-18.8-12.1-29.3-0.18-0.65-0.36-1.3-0.54-1.97-2.87-12.4 1.43-28.2 7.54-39 5.74-8.11 12.3-13.8 22.2-15.6 12.2-1.27 20.2 1.36 29.2 9.85z" fill="#FEFEFE"/>
<path transform="translate(1138 266)" d="m0 0c0.84-0.01 1.68-0.02 2.54-0.03 0.9 0 1.8-0.01 2.73-0.01 0.94-0.01 1.88-0.01 2.85-0.02 1.99-0.01 3.99-0.02 5.98-0.02 3.01-0.01 6.02-0.04 9.03-0.07 15.1-0.09 29.7 0.18 41.4 11 5.9 6.44 8.15 13.7 8.15 22.3-0.98 9.28-4.85 16.7-11.6 23.1-8 6.25-17.2 10.1-27.4 8.89-8.69-2.69-8.69-2.69-11-5-2.43 4.87-1.31 12.3-1.35 17.7-0.01 1.75-0.04 3.51-0.08 5.26-0.05 2.53-0.08 5.06-0.09 7.59-0.02 0.78-0.05 1.56-0.07 2.37 0.02 3.94 0.2 5.64 2.99 8.52 2.39 1.4 4.09 2.13 6.79 2.58 3.81 0.94 3.81 0.94 5.81 3.94-0.37 2.69-0.37 2.69-1 5-6.23 0.08-12.5 0.13-18.7 0.17-2.12 0.01-4.24 0.03-6.36 0.06-3.04 0.03-6.08 0.05-9.13 0.06-0.95 0.02-1.9 0.04-2.88 0.05h-2.67c-1.17 0.01-1.17 0.01-2.36 0.02-0.63-0.12-1.26-0.24-1.91-0.36l-2-3c4.27-4.93 6.28-5.48 13-8l1-92h-2v-2c-0.88-0.1-1.77-0.21-2.68-0.31-3.37-0.7-5.49-1.78-8.32-3.69l1-3c2.74-1.03 5.38-1.13 8.29-1.16z" fill="#F8A410"/>
<path transform="translate(745 278)" d="m0 0c12.6 10.4 18.9 24.6 21.9 40.4 0.1 1.11 0.2 2.22 0.31 3.37 0.06 0.63 0.13 1.25 0.2 1.9 0.88 16-7.24 31-17.6 42.6-4.64 4.94-9.52 8.59-15.6 11.5-1.2 0.58-1.2 0.58-2.43 1.17-13 5.74-25.2 5.76-38.4 1.08-5.21-2.09-10.2-4.62-15.1-7.25v-2c-0.72-0.2-1.45-0.4-2.19-0.61-3.65-1.8-5.5-4.37-7.75-7.64-0.43-0.62-0.86-1.24-1.31-1.87-4.24-6.26-7.19-12.8-9.75-19.9-0.27-0.7-0.53-1.41-0.8-2.13-4.71-14.9 0.32-30.4 7.05-43.7 7.84-13.7 19.9-23.6 35.2-27.8 16.8-3.75 32.5 0.93 46.3 10.9zm-56.7 3.21c-10.3 9.19-14.2 24.4-15.2 37.7-0.27 7.26 1.21 13.8 3.16 20.8 0.31 1.16 0.61 2.32 0.93 3.52 3.38 11.2 10.5 20.9 21 26.6 9.74 4.17 17.4 4.77 27.3 1.08 8.68-3.77 14.2-9.94 18.3-18.4 3.22-8.65 3.89-16.8 3.94-26 0.01-1.61 0.01-1.61 0.02-3.26-0.26-16.3-5.29-29.2-16.7-40.8-12.4-11.5-29.4-11.2-42.8-1.19z" fill="#F8A410"/>
<path transform="translate(842,308)" d="m0 0c10.3 11.1 9.14 27.2 8.87 41.3-0.06 6.67-0.05 13.4 2.13 19.7 2.26 2.44 2.26 2.44 5 4 2.31 2.12 2.31 2.12 4 4v2c-5.44 1.22-10.7 1.18-16.2 1.19-1.5 0.02-1.5 0.02-3.03 0.03-12.3 0.03-12.3 0.03-17.7-2.22l-2-3c2.02-2.49 3.52-3.22 6.56-4.5 3.64-1.22 3.64-1.22 5.44-4.5 0.31-2.55 0.31-2.55 0.27-5.42 0-1.08 0-2.16 0.01-3.28-0.01-1.15-0.02-2.3-0.03-3.49-0.01-1.17-0.01-2.34-0.02-3.55 0.5-17.5 0.5-17.5-7.23-32.3-3.97-2.3-7.47-2.53-12-2-3.32 1.27-6.32 2.65-9 5-2.13 4.95-2.31 9.4-2.3 14.7-0.01 0.82-0.01 1.64-0.01 2.48-0.01 1.73-0.01 3.46-0.01 5.19 0.01 2.63-0.02 5.26-0.04 7.9v5.05c-0.01 0.78-0.02 1.57-0.03 2.37 0.04 4.83 0.74 8.13 3.39 12.3 1.95 1.39 1.95 1.39 4.12 2.12 2.14 0.83 2.14 0.83 3.88 1.88 0.74 2.12 0.74 2.12 1 4-0.64-0.01-1.28-0.02-1.94-0.04-0.87 0-1.73-0.01-2.62-0.02-1.27-0.02-1.27-0.02-2.57-0.04-2.93 0.03-2.93 0.03-5.99 0.66-5.21 0.59-10.1 0.05-15.3-0.5-1.52-0.15-1.52-0.15-3.08-0.3-2.5-0.25-4.99-0.5-7.48-0.76v-5c0.64-0.28 1.28-0.55 1.93-0.84 1.24-0.54 1.24-0.54 2.51-1.1 1.23-0.54 1.23-0.54 2.49-1.09 2.01-0.8 2.01-0.8 3.07-1.97 1.15-9.79 1.13-19.7 1.19-29.6 0.01-1.12 0.02-2.24 0.04-3.39 0-5.71-0.06-10.7-2.23-16-3.11-2.5-6.38-4.33-10-6l1-3c8.01-3.38 19.5-6.17 28-4v7c1.01-0.64 2.03-1.28 3.07-1.93 1.35-0.84 2.7-1.67 4.05-2.51 0.67-0.42 1.34-0.84 2.02-1.27 8.71-5.34 18.8-6.29 26.9 0.71z" fill="#F8A410"/>
<path transform="translate(1015 303)" d="m0 0c0.84 0.08 1.67 0.16 2.54 0.24 5.43 1.01 8.33 3.99 11.4 8.45 4.95 9.54 5.27 19.3 5.06 29.9-0.03 2.21-0.06 4.41-0.09 6.62-0.02 0.96-0.04 1.93-0.05 2.92 0.07 2.38 0.47 4.29 1.08 6.59-0.02 1.13-0.04 2.27-0.06 3.43 0.06 3.55 0.28 5.52 2.06 8.57 2.37 1.61 2.37 1.61 5 3 2.31 2.06 2.31 2.06 4 4v2c-10.4 1.67-29.9 4.04-39-2 0.44-2.25 0.44-2.25 2-5 2.12-1.15 2.12-1.15 4.6-2.17 0.82-0.35 1.64-0.7 2.48-1.05 0.64-0.26 1.27-0.52 1.92-0.78 0.07-5.43 0.13-10.8 0.16-16.3 0.02-1.84 0.04-3.69 0.06-5.53 0.04-2.66 0.06-5.32 0.07-7.98 0.02-0.81 0.03-1.63 0.05-2.47 0-6.67-1.44-11.2-5.47-16.6-3.92-2.9-7.02-3.65-11.9-3.12-6.46 2.17-6.46 2.17-11.1 6.83-0.95 2.3-1.16 3.92-1.2 6.4-0.01 0.82-0.03 1.65-0.05 2.5 0 0.88-0.01 1.76-0.01 2.67-0.01 0.91-0.02 1.83-0.03 2.77-0.02 1.93-0.02 3.87-0.03 5.8-0.01 2.95-0.06 5.9-0.11 8.85-0.01 1.88-0.02 3.76-0.02 5.64-0.02 0.88-0.04 1.76-0.06 2.67 0.03 4.44 0.15 6.27 2.98 9.87 2.58 2.04 2.58 2.04 5.39 3.56 2.25 1.44 2.25 1.44 2.89 3.53 0.12 0.63 0.24 1.26 0.36 1.91-5.38 0.05-10.8 0.08-16.1 0.11-1.83 0.01-3.66 0.02-5.49 0.04-2.62 0.02-5.25 0.03-7.87 0.04-1.24 0.02-1.24 0.02-2.49 0.03-2.01 0-4.02-0.1-6.02-0.22l-2-2c0.06-1.99 0.06-1.99 1-4 2.25-1.23 2.25-1.23 5-2.19 3.26-0.97 3.26-0.97 6-2.81 0.13-1.44 0.19-2.89 0.22-4.34 0.02-0.92 0.05-1.84 0.07-2.79 0.07-4.23 0.13-8.46 0.17-12.7 0.02-2.23 0.06-4.46 0.12-6.69 0.08-3.22 0.11-6.43 0.14-9.65 0.03-0.99 0.06-1.99 0.1-3.01 0.02-5.23 0.02-5.23-2.29-9.76-2.93-2.59-6.01-4.37-9.53-6.06 1-3 1-3 3.02-4.09 3.81-1.17 7.62-1.88 11.5-2.54 0.75-0.13 1.51-0.27 2.29-0.4 3.45-0.6 6.63-0.97 10.2-0.97l2 7c4.57-1.69 8.41-4.05 12.5-6.66 4.23-2.27 7.85-2.52 12.6-2.03z" fill="#F8A410"/>
<path transform="translate(1108,309)" d="m0 0c0.67 0.43 1.34 0.87 2.03 1.32 6.44 4.78 8.7 12 9.97 19.7 0.04 2.33 0.05 4.67 0 7-7.98 2.66-20.6 3.7-28.9 1.5-2.23-0.53-4.16-0.61-6.45-0.6-1.2 0.01-1.2 0.01-2.42 0.01-0.83 0.01-1.65 0.02-2.5 0.03-0.84 0-1.68 0.01-2.55 0.01-2.06 0.01-4.13 0.03-6.2 0.05 0.25 6.2 1.04 11 4.16 16.4 0.84 1.59 0.84 1.59 0.84 3.59 1.48 0.5 1.48 0.5 3 1v2c0.56 0.27 1.11 0.54 1.69 0.81 2.31 1.19 2.31 1.19 4.43 2.75 4.86 2.43 9.49 3.43 14.8 1.87 2.88-1.02 5.7-2.12 8.51-3.33 5.07-2.16 5.07-2.16 8.01-1.79 0.5 0.23 1 0.46 1.52 0.69-1.11 6.15-5.68 9.36-10.6 12.8-8.28 4.85-16.3 5.42-25.4 3.18-9.93-3.19-17.5-8.54-22.5-17.8-4.65-10.1-6.05-20.6-2.51-31.2 2.71-6.51 5.46-12.4 11-17 1.21-1.05 1.21-1.05 2.44-2.12 11.2-8.18 26.1-8.61 37.6-0.88z" fill="#F8A410"/>
<path transform="translate(1268,306)" d="m0 0c5.14 5.14 7.13 11.8 7.31 19-0.01 1.78-0.04 3.57-0.09 5.35-0.01 0.95-0.02 1.9-0.02 2.88-0.03 3.02-0.08 6.03-0.14 9.04-0.05 3.03-0.09 6.05-0.12 9.08-0.02 1.88-0.05 3.75-0.09 5.63-0.05 4.47 0.01 7.97 2.15 12 5.58 0.12 5.58 0.12 11-1l1 3c-4.53 4.72-8.16 7.96-14.9 8.21-4.33-0.43-7.11-2.11-9.99-5.27-1.12-1.94-1.12-1.94-1.12-3.94-3.27 1.59-6.48 3.25-9.62 5.06-6.17 3.54-10.2 4.81-17.4 3.94-5.35-1.69-8.91-4.25-12-9-0.41-0.62-0.83-1.24-1.25-1.88-1.42-4.01-1.47-7.29 0.1-11.3 6.37-11.3 20.4-15.6 32-19.7 2.94-0.82 2.94-0.82 4.11-2.13 0.18-2.6 0.28-5.15 0.31-7.75 0.03-0.72 0.06-1.43 0.09-2.17 0.04-3.69-0.24-5.83-2.23-8.97-2.18-2.25-2.18-2.25-5.17-4.11-4.29 0.32-8.23 0.89-12 3-1.11 2.75-1.11 2.75-1.56 5.94-0.99 5.62-0.99 5.62-3.35 7.95-3.05 1.62-4.82 1.05-8.09 0.11-2.88-1.56-2.88-1.56-5-3 5.69-12.1 13.8-17.3 26.1-21.8 6.51-1.98 14-1.71 19.9 1.79z" fill="#F8A410"/>
<path transform="translate(1289,304)" d="m0 0h37c0.49 1.49 0.49 1.49 1 3-2.54 2.97-5.49 4.36-9 6 0.51 5.23 1.82 9.35 4.19 14.1l1.89 3.93c0.32 0.66 0.64 1.32 0.96 2 1.54 3.22 2.98 6.49 4.4 9.76 0.49 1.13 0.98 2.26 1.49 3.42 1.07 2.83 1.07 2.83 1.07 5.83 0.99 0.33 1.98 0.66 3 1 0.19-0.56 0.37-1.13 0.56-1.71 0.88-2.64 1.75-5.28 2.63-7.91 0.31-0.96 0.63-1.91 0.95-2.9 2.21-6.61 4.53-13.2 7.01-19.7 0.85-2.8 1.15-4.9 0.85-7.81-2.81-2.81-6.44-4.3-10-6v-3h33c0.49 1.49 0.49 1.49 1 3-6.6 3.94-6.6 3.94-9.03 4.32-2.1 0.47-2.1 0.47-2.85 2.33-0.19 0.72-0.38 1.44-0.57 2.17-1.09 3.71-2.33 7.25-3.78 10.8-0.41 1-0.82 2-1.23 3.02-0.43 1.04-0.85 2.08-1.29 3.15-3.07 7.59-6.04 15.2-8.69 22.9-2.68 7.82-5.49 15.6-8.4 23.3-0.7 1.86-1.39 3.71-2.08 5.57-9.03 23.9-9.03 23.9-19.1 30.4-4.12 1.3-5.88 1.44-9.88-0.12-2.12-1.88-2.12-1.88-3.12-4.38 0-2.5 0-2.5 1.17-4.05 2.28-1.8 4.36-2.38 7.14-3.2 5.59-1.97 8.78-4.05 11.7-9.25 4.32-9.45 4.73-16.6 1.14-26.4-1.34-3.47-2.73-6.92-4.14-10.4-0.6-1.48-1.19-2.95-1.78-4.43-1.18-2.93-2.37-5.85-3.57-8.77-1.44-3.51-2.84-7.04-4.23-10.6-5.93-15.1-5.93-15.1-17.9-25.5-0.83-0.31-1.65-0.62-2.5-0.94l1-3z" fill="#F9A410"/>
<path transform="translate(895,261)" d="m0 0c1.09 2.46 1.01 3.95 0.52 6.6-0.62 4.07-0.67 7.99-0.67 12.1 0 0.86 0 1.71-0.01 2.59 0 2.81-0.01 5.61-0.01 8.42 0 1.97 0 3.93-0.01 5.89 0 4.11-0.01 8.23-0.01 12.3 0 5.25-0.01 10.5-0.03 15.8-0.01 4.05-0.01 8.11-0.01 12.2 0 1.93 0 3.87-0.01 5.8-0.51 13.9-0.51 13.9 2.24 27.4 2 2.08 2 2.08 4.56 2.94 2.44 1.02 2.44 1.02 4.44 2.06l1 3c-5.02 1.65-9.05 2.21-14.4 2.01-0.68-0.02-1.35-0.04-2.05-0.07-1.4-0.05-2.81-0.1-4.22-0.16-2.16-0.09-4.32-0.17-6.49-0.24-10.5-0.39-10.5-0.39-12.8-1.54-0.06-2.25-0.06-2.25 1-5 2.24-1.21 4.47-2.07 6.87-2.91 2.77-1.42 3.09-2.16 4.13-5.09 0.17-2.92 0.24-5.74 0.2-8.65 0-0.87-0.01-1.75-0.01-2.64-0.01-2.89-0.04-5.77-0.07-8.65-0.02-2-0.03-4-0.05-6.01-0.03-4.19-0.08-8.39-0.13-12.6-0.06-5.38-0.09-10.8-0.12-16.2-0.02-4.13-0.06-8.26-0.11-12.4-0.02-1.98-0.03-3.97-0.04-5.95-0.01-2.77-0.05-5.55-0.09-8.32v-2.49c-0.08-3.56-0.25-5.72-2.41-8.62-2.61-1.85-5.1-2.7-8.17-3.54v-2c5.57-1.95 11.2-3.68 16.9-5.25 0.65-0.19 1.3-0.37 1.98-0.57 3.27-0.88 4.85-1.28 8.14-0.18z" fill="#F8A410"/>
<path transform="translate(1185 278)" d="m0 0c6.93 7.35 8.96 15.4 9 25.4-0.46 6.98-4.05 11.3-9 16-4.65 3.93-8.44 4.17-14.4 4.25-1.67 0.04-1.67 0.04-3.37 0.08-3.77-0.39-5.34-0.81-8.19-3.33-0.74-3.11-0.63-6.18-0.56-9.37 0-0.92 0.01-1.84 0.01-2.79 0.01-1.95 0.03-3.9 0.06-5.84 0.05-2.99 0.06-5.97 0.07-8.95 0.01-1.89 0.03-3.78 0.05-5.67 0-0.9 0.01-1.79 0.02-2.71 0.01-0.83 0.03-1.66 0.04-2.52 0.01-0.73 0.02-1.46 0.04-2.21 0.27-1.94 0.27-1.94 2.27-4.94 7.63-1.63 17.6-2.59 24 2.64z" fill="#FEFEFE"/>
<path transform="translate(941,306)" d="m0 0c-0.01 0.75-0.02 1.51-0.03 2.28-0.1 7.11-0.18 14.2-0.23 21.3-0.03 3.65-0.06 7.31-0.12 11-0.05 3.53-0.08 7.05-0.09 10.6-0.02 2-0.06 4-0.1 5.99-0.31 7.15-0.31 7.15 2.94 13.1 1.72 1.13 3.48 2.23 5.25 3.29 2.53 1.53 3.78 3 5.38 5.44-1.18-0.02-2.35-0.04-3.56-0.06-2.64-0.05-5 0.15-7.62 0.56-4.49 0.59-8.86 0.65-13.4 0.62-0.83 0.01-1.65 0.01-2.5 0.02-4.43-0.01-8.58-0.25-12.9-1.14-0.5-2.97-0.5-2.97-1-6 0.71-0.28 1.42-0.55 2.15-0.84 1.38-0.54 1.38-0.54 2.79-1.1 0.91-0.36 1.83-0.72 2.77-1.09 2.21-0.77 2.21-0.77 3.29-1.97 1.27-10.3 1.13-20.8 1.19-31.2 0.01-1.27 0.02-2.55 0.04-3.87v-3.67c0-1.09 0.01-2.17 0.01-3.29-0.25-3.09-0.84-5.23-2.24-7.98-2.3-1.7-2.3-1.7-5-3-2.81-1.5-2.81-1.5-5-3v-3c1.25-0.28 2.51-0.55 3.8-0.84 1.65-0.37 3.3-0.73 4.95-1.1 0.83-0.18 1.65-0.36 2.5-0.55 1.2-0.27 1.2-0.27 2.42-0.54 1.1-0.24 1.1-0.24 2.22-0.49 2.1-0.43 2.1-0.43 4.01-1.17 3.02-0.45 5.26 0.68 8.1 1.69z" fill="#F8A410"/>
<path transform="translate(1097 314)" d="m0 0c3.67 3.47 6.43 6.72 8.24 11.5v4h-33c-1.16-5.82-0.48-7.11 2.42-11.9 3.25-4.29 6.99-5.71 12.2-6.97 4.47-0.17 6.7 0.46 10.1 3.36z" fill="#FEFEFE"/>
<path transform="translate(1259,346)" d="m0 0c1.93 1.93 1.31 5.18 1.38 7.75-0.05 7.9-0.05 7.9-2.69 10.6-4.71 2.96-9.25 3.54-14.7 2.69-3.09-2.25-4.54-3.95-6.06-7.44 0.09-3.93 1.49-5.62 4.06-8.56 5.74-3.71 11.2-5.3 18-5z" fill="#FEFEFE"/>
<path transform="translate(935,267)" d="m0 0c2.88 2.24 4.58 4.01 6 7.38 0 3.83-1.15 6.29-3 9.62-2.31 2.06-2.31 2.06-5 3-5-0.83-7.92-3.02-11-7-0.67-3.15-0.68-4.93 1.06-7.68 3.71-4.61 6.03-6.02 11.9-5.32z" fill="#F9A410"/>
<path transform="translate(268,272)" d="m0 0c2.69 2.69 2.26 4.09 2.27 7.86v3.57c0 1.24-0.01 2.48-0.02 3.76 0.01 1.22 0.02 2.44 0.02 3.69-0.01 6.08-0.14 11.4-2.27 17.1h-1c-0.02-4.97-0.04-9.93-0.05-14.9l-0.03-5.07c-0.01-2.43-0.01-4.85-0.02-7.28 0-0.76-0.01-1.52-0.01-2.3 0-1.82 0.05-3.63 0.11-5.45l1-1z" fill="#fff"/>
<path transform="translate(1348 301)" d="m0 0c0.66 0.04 1.31 0.08 1.99 0.13 1.38 0.09 2.76 0.19 4.14 0.29 2.11 0.16 4.23 0.29 6.34 0.42 1.35 0.1 2.69 0.19 4.03 0.28 1.22 0.09 2.44 0.18 3.7 0.27 2.92 0.44 2.92 0.44 4.92 2.44-0.99 0.33-1.98 0.66-3 1v-2c-1.34 0.06-1.34 0.06-2.71 0.12-3.31 0.15-6.63 0.28-9.95 0.42-1.43 0.05-2.86 0.12-4.3 0.18-2.06 0.1-4.12 0.18-6.19 0.25-1.24 0.06-2.48 0.11-3.76 0.16-3.09-0.13-3.09-0.13-6.09-2.13 3.67-2.37 6.6-2.12 10.9-1.83z" fill="#FBFDFE"/>
<path transform="translate(1085,313)" d="m0 0-1 3c0.6-0.19 1.2-0.37 1.81-0.56 2.19-0.44 2.19-0.44 5.19 0.56v2h-8l-1 3c-0.99-0.33-1.98-0.66-3-1l3-3-2-1v2h-2v2h-2c0-4 0-4 1.69-5.75 2.66-1.44 4.33-1.5 7.31-1.25z" fill="#FBFDFE"/>
<path transform="translate(289 173)" d="m0 0c1.17 0.04 1.17 0.04 2.37 0.08 1.18 0.02 1.18 0.02 2.38 0.04 2.06 0.21 2.06 0.21 4.06 1.21 2.04 0.23 4.08 0.41 6.12 0.56 1.65 0.13 1.65 0.13 3.32 0.25 0.85 0.07 1.69 0.13 2.56 0.19v1h-26c3-3 3-3 5.19-3.33z" fill="#fff"/>
<path transform="translate(403,149)" d="m0 0 4 1-1 4h2v7l-4 1c0.02-1.03 0.04-2.06 0.06-3.12-0.05-3.43-0.41-6.53-1.06-9.88z" fill="#FCFDFE"/>
<path transform="translate(858,380)" d="m0 0 2 1h2l1 3c-2.4 0.03-4.79 0.05-7.19 0.06-0.67 0.01-1.34 0.02-2.04 0.03-3.72 0.02-7.15-0.2-10.8-1.09v-1h15v-2z" fill="#fff"/>
<path transform="translate(1159,329)" d="m0 0c1.52 1.02 1.52 1.02 3 3 0.06 2.67-0.03 5.05-0.31 7.69-0.06 0.7-0.12 1.4-0.19 2.12-0.15 1.73-0.32 3.46-0.5 5.19-2.45-3.68-2.23-6.44-2.12-10.7 0-0.7 0.01-1.4 0.02-2.12 0.03-1.73 0.06-3.46 0.1-5.19z" fill="#fff"/>
<path transform="translate(756,288)" d="m0 0c1.5 1.38 1.5 1.38 3 3v2h2c1.06 1.81 1.06 1.81 2 4l-1 3c-3.04-3.54-5.71-6.91-8-11l2-1z" fill="#FBFDFE"/>
<path transform="translate(361,228)" d="m0 0h4v2h6v1c-1.99-0.03-3.97-0.07-5.96-0.1-2.24 0.02-2.24 0.02-5.04 1.1v2h-2c0.57-2.87 0.86-3.86 3-6z" fill="#FBFDFE"/>
</svg>
